<svg xmlns="http://www.w3.org/2000/svg" viewBox="0 0 472 82"><defs><style>.cls-1{fill:#fff;}.cls-2{fill:#fd003a;}</style></defs><title>banner</title><g id="Layer_2" data-name="Layer 2"><g id="Layer_1-2" data-name="Layer 1"><rect class="cls-1" width="472" height="82"/><path class="cls-2" d="M38.9.5A28.6,28.6,0,0,0,10.4,29a27.8,27.8,0,0,0,4.3,14.9L36.9,80.3a2.2,2.2,0,0,0,1.6,1.1A2.4,2.4,0,0,0,41,80.3L63.3,43.5a28.2,28.2,0,0,0,4-14.5A28.5,28.5,0,0,0,38.9.5Zm0,42.7A14.2,14.2,0,1,1,53.1,29,14.2,14.2,0,0,1,38.9,43.2Z"/><path class="cls-2" d="M38.9.5V14.8a14.2,14.2,0,1,1,0,28.4V81.5A2.5,2.5,0,0,0,41,80.3L63.3,43.5a28.2,28.2,0,0,0,4-14.5A28.5,28.5,0,0,0,38.9.5Z"/><rect class="cls-2" x="22" y="12" width="34.4" height="34.39"/><path class="cls-1" d="M26,27.8V23.7a.7.7,0,0,0,0-1.4,3.4,3.4,0,0,0-3.4,3.5v1.3a2,2,0,0,0,2,2.1H26a.7.7,0,0,0,0-1.4Z"/><path class="cls-1" d="M52.4,22.3a.7.7,0,1,0,0,1.4v4.1a.7.7,0,1,0,0,1.4h1.4a2.1,2.1,0,0,0,2.1-2.1V25.8A3.5,3.5,0,0,0,52.4,22.3Z"/><path class="cls-1" d="M34.4,41.7a.7.7,0,0,0-.7.7H29.5a.7.7,0,0,0-1.4,0v1.4a2.1,2.1,0,0,0,2.1,2.1H33a2.2,2.2,0,0,0,2.1-2.1V42.4A.8.8,0,0,0,34.4,41.7Z"/><path class="cls-1" d="M49.6,41.7a.7.7,0,0,0-.7.7H44.8a.7.7,0,0,0-1.4,0v1.4a2.1,2.1,0,0,0,2.1,2.1h2.7a2.1,2.1,0,0,0,2.1-2.1V42.4A.7.7,0,0,0,49.6,41.7Z"/><path class="cls-1" d="M49.6,12.6H28.8A3.5,3.5,0,0,0,25.3,16V39.6a3.5,3.5,0,0,0,3.5,3.5H49.6a3.5,3.5,0,0,0,3.5-3.5V16A3.5,3.5,0,0,0,49.6,12.6Zm-18,2.7H46.8a2.1,2.1,0,0,1,2.1,2.1,2.1,2.1,0,0,1-2.1,2.1H31.6a2.1,2.1,0,0,1-2.1-2.1A2.1,2.1,0,0,1,31.6,15.3Zm0,23.6a2,2,0,0,1-2.1-2,2.1,2.1,0,0,1,2.1-2.1,2.1,2.1,0,1,1,0,4.1Zm15.2,0a2,2,0,0,1-2-2,2,2,0,0,1,2-2.1,2.1,2.1,0,0,1,2.1,2.1A2,2,0,0,1,46.8,38.9Zm3.5-9A2.1,2.1,0,0,1,48.2,32h-18a2.1,2.1,0,0,1-2.1-2.1V23a2.1,2.1,0,0,1,2.1-2.1h18A2.1,2.1,0,0,1,50.3,23v6.9Z"/><path d="M102.8,26.3H96v21H90v-21H83.4V21.7h19.4Z"/><path d="M114.2,33.3h-1.9a3.9,3.9,0,0,0-1.7.4,2.1,2.1,0,0,0-1,1.1V47.3h-5.9v-19h5.6l.2,2.8a5,5,0,0,1,1.6-2.3,3.2,3.2,0,0,1,2.3-.9h1.3Z"/><path d="M127.3,47.3a5.8,5.8,0,0,1-.5-1.4,7.5,7.5,0,0,1-.4-1.6,6.2,6.2,0,0,1-1.9,2.5,4.5,4.5,0,0,1-3,.9,6.3,6.3,0,0,1-4.6-1.6,5.4,5.4,0,0,1-1.7-4.2,4.9,4.9,0,0,1,2.2-4.3c1.4-1.1,3.5-1.6,6.4-1.6h2.5V34.7a2.9,2.9,0,0,0-.6-1.9,2.4,2.4,0,0,0-1.8-.6,1.8,1.8,0,0,0-2,2h-5.8a4.8,4.8,0,0,1,2.1-4.3,9.8,9.8,0,0,1,6.1-1.8,8.6,8.6,0,0,1,5.7,1.8,5.9,5.9,0,0,1,2.2,5v7.2a12.7,12.7,0,0,0,.3,2.8,12.5,12.5,0,0,0,.7,2.6Zm-4.1-3.9a3.2,3.2,0,0,0,1.9-.5,3.4,3.4,0,0,0,1.2-1.2V39.2h-2.4a2.5,2.5,0,0,0-2.1.7,2.4,2.4,0,0,0-.6,1.7,1.7,1.7,0,0,0,.5,1.3A2,2,0,0,0,123.2,43.4Z"/><path d="M140.9,28.3l.2,2.7a7.5,7.5,0,0,1,2.4-2.3,6.1,6.1,0,0,1,3-.8,5.7,5.7,0,0,1,4.4,1.9c1,1.3,1.6,3.3,1.6,6.1V47.3h-6V35.8a4,4,0,0,0-.6-2.5,2,2,0,0,0-1.7-.8,4.7,4.7,0,0,0-1.7.3,4,4,0,0,0-1.2,1V47.3h-6v-19Z"/><path d="M165.6,42a1.7,1.7,0,0,0-.8-1.3,7.8,7.8,0,0,0-2.9-1,11.1,11.1,0,0,1-5-2,4.7,4.7,0,0,1-1.7-3.8,5.3,5.3,0,0,1,2.1-4.2,8.5,8.5,0,0,1,5.7-1.8,10.3,10.3,0,0,1,6.1,1.7,5,5,0,0,1,2.1,4.4h-5.8a2.4,2.4,0,0,0-.6-1.7,2.2,2.2,0,0,0-1.8-.6,3,3,0,0,0-1.6.5,1.8,1.8,0,0,0-.6,1.3,1.5,1.5,0,0,0,.7,1.3,7.8,7.8,0,0,0,3,1,11.1,11.1,0,0,1,5.1,2,4.5,4.5,0,0,1,1.7,3.9A4.8,4.8,0,0,1,169,46a9.9,9.9,0,0,1-6,1.7,9,9,0,0,1-6.1-2,5.4,5.4,0,0,1-2.2-4.4h5.4a2.5,2.5,0,0,0,.9,2,3.4,3.4,0,0,0,2.2.6,3,3,0,0,0,1.8-.5A1.6,1.6,0,0,0,165.6,42Z"/><path d="M180.3,47.3h-5.9V19.9h5.9Z"/><path d="M183.2,37.6a10.3,10.3,0,0,1,2.4-7,8.7,8.7,0,0,1,6.8-2.7,8.8,8.8,0,0,1,6.8,2.7,10.3,10.3,0,0,1,2.4,7V38a10.1,10.1,0,0,1-2.4,7,8.8,8.8,0,0,1-6.8,2.7,8.7,8.7,0,0,1-6.8-2.7,10.1,10.1,0,0,1-2.4-7Zm5.9.4a7.5,7.5,0,0,0,.8,3.7,2.9,2.9,0,0,0,5,0,7.5,7.5,0,0,0,.8-3.7v-.4a7.8,7.8,0,0,0-.8-3.7,2.9,2.9,0,0,0-5,0,7.8,7.8,0,0,0-.8,3.7Z"/><path d="M212.3,43.1a2.4,2.4,0,0,0,1.9-.7,3.1,3.1,0,0,0,.5-1.9h5.5a6.4,6.4,0,0,1-2.2,5.1,9.3,9.3,0,0,1-12.3-.7,10.1,10.1,0,0,1-2.4-7v-.4a10.5,10.5,0,0,1,2.3-7,9.5,9.5,0,0,1,12.5-.7,7.5,7.5,0,0,1,2.1,5.6h-5.5a3.6,3.6,0,0,0-.6-2.2,2,2,0,0,0-1.8-.9,2.6,2.6,0,0,0-2.4,1.4,9,9,0,0,0-.7,3.7V38a9,9,0,0,0,.7,3.7A2.4,2.4,0,0,0,212.3,43.1Z"/><path d="M231.9,47.3V21.7h8.4a13.4,13.4,0,0,1,7.5,1.8,6,6,0,0,1,2.6,5.2,7,7,0,0,1-.8,3.3,5.8,5.8,0,0,1-2.7,2.1,4.8,4.8,0,0,1,3.4,2.1,6.1,6.1,0,0,1,1.1,3.5,6.7,6.7,0,0,1-2.5,5.7c-1.7,1.3-4.1,1.9-7.2,1.9Zm6-14.9h2.3a5.6,5.6,0,0,0,3.2-.8,2.5,2.5,0,0,0,1.1-2.2,3,3,0,0,0-1-2.4,5.6,5.6,0,0,0-3.2-.7h-2.4Zm0,3.9v6.4h3.8a4.3,4.3,0,0,0,2.8-.7,2.6,2.6,0,0,0,1-2.3,3.7,3.7,0,0,0-.8-2.5,4.9,4.9,0,0,0-2.8-.9h-4Z"/><path d="M266,44.5a6.1,6.1,0,0,1-2.2,2.3,5.4,5.4,0,0,1-3.1.9,5.5,5.5,0,0,1-4.6-2.1c-1.1-1.4-1.7-3.5-1.7-6.4V28.3h5.9V39.2a5.8,5.8,0,0,0,.6,3.1,2.2,2.2,0,0,0,1.8.8,3.8,3.8,0,0,0,1.6-.3,2.6,2.6,0,0,0,1.3-.8V28.3h5.9v19h-4.8Z"/><path d="M284.7,42a1.7,1.7,0,0,0-.8-1.3,7.8,7.8,0,0,0-2.9-1,11.1,11.1,0,0,1-5-2,4.4,4.4,0,0,1-1.7-3.8,5.3,5.3,0,0,1,2.1-4.2,8.5,8.5,0,0,1,5.7-1.8,10.3,10.3,0,0,1,6.1,1.7,5,5,0,0,1,2.1,4.4h-5.8a2.4,2.4,0,0,0-.6-1.7,2.3,2.3,0,0,0-1.8-.6,2.8,2.8,0,0,0-1.6.5,1.8,1.8,0,0,0-.6,1.3,1.5,1.5,0,0,0,.7,1.3,7.8,7.8,0,0,0,3,1,11.1,11.1,0,0,1,5.1,2,4.8,4.8,0,0,1,1.7,3.9,5.1,5.1,0,0,1-2.3,4.2,9.9,9.9,0,0,1-6,1.7,9,9,0,0,1-6.1-2,5.4,5.4,0,0,1-2.2-4.4h5.4a2.5,2.5,0,0,0,.8,2,3.9,3.9,0,0,0,2.3.6,3,3,0,0,0,1.8-.5A1.6,1.6,0,0,0,284.7,42Z"/><path d="M320.3,26.3h-6.7v21h-6v-21H301V21.7h19.3Z"/><path d="M331.7,33.3h-1.9a4.3,4.3,0,0,0-1.7.4,2.4,2.4,0,0,0-.9,1.1V47.3h-6v-19h5.6l.2,2.8a5.9,5.9,0,0,1,1.6-2.3,3.3,3.3,0,0,1,2.3-.9h1.4Z"/><path d="M344.9,47.3l-.6-1.4-.3-1.6a7.2,7.2,0,0,1-1.9,2.5,4.9,4.9,0,0,1-3,.9,6.1,6.1,0,0,1-4.6-1.6,5.4,5.4,0,0,1-1.7-4.2,5,5,0,0,1,2.1-4.3c1.4-1.1,3.6-1.6,6.5-1.6h2.4V34.7a2.9,2.9,0,0,0-.6-1.9,2.1,2.1,0,0,0-3.8,1.4h-5.8a4.9,4.9,0,0,1,2.2-4.3,9.4,9.4,0,0,1,6.1-1.8,8.8,8.8,0,0,1,5.7,1.8,6.2,6.2,0,0,1,2.2,5v7.2a24.6,24.6,0,0,0,.2,2.8,12.9,12.9,0,0,0,.8,2.6Zm-4.2-3.9a3.3,3.3,0,0,0,2-.5,2.5,2.5,0,0,0,1.1-1.2V39.2h-2.4a2.4,2.4,0,0,0-2,.7,2.4,2.4,0,0,0-.7,1.7,1.5,1.5,0,0,0,.6,1.3A1.7,1.7,0,0,0,340.7,43.4Z"/><path d="M361.2,43.1a2.1,2.1,0,0,0,1.8-.7,2.5,2.5,0,0,0,.6-1.9H369a6.3,6.3,0,0,1-2.1,5.1,8.4,8.4,0,0,1-5.7,2c-2.9,0-5.2-.9-6.7-2.7a10.1,10.1,0,0,1-2.4-7v-.4a10.1,10.1,0,0,1,2.4-7,8.1,8.1,0,0,1,6.6-2.7,8.3,8.3,0,0,1,5.8,2,6.8,6.8,0,0,1,2.1,5.6h-5.4a3.1,3.1,0,0,0-.7-2.2,2,2,0,0,0-1.8-.9,2.6,2.6,0,0,0-2.4,1.4,9,9,0,0,0-.7,3.7V38a9,9,0,0,0,.7,3.7A2.5,2.5,0,0,0,361.2,43.1Z"/><path d="M378.5,39.7h-1.1v7.6h-6V19.9h6V35.3h.8l4-7H389l-5.8,8.6L390,47.3h-6.8Z"/><path d="M397.3,23.9h-5.9v-4h5.9Zm0,23.4h-5.9v-19h5.9Z"/><path d="M406.4,28.3l.3,2.7a7.2,7.2,0,0,1,2.3-2.3,6.1,6.1,0,0,1,3-.8,5.7,5.7,0,0,1,4.4,1.9c1,1.3,1.6,3.3,1.6,6.1V47.3h-6V35.8a4,4,0,0,0-.6-2.5,1.8,1.8,0,0,0-1.6-.8,4.3,4.3,0,0,0-1.7.3,4.5,4.5,0,0,0-1.3,1V47.3h-5.9v-19Z"/><path d="M420.4,37.8a11.9,11.9,0,0,1,1.9-7.1,6.3,6.3,0,0,1,5.5-2.8,5.3,5.3,0,0,1,2.6.7,5.8,5.8,0,0,1,2,2.1l.4-2.4H438V47.1a7,7,0,0,1-2.5,5.8,10.9,10.9,0,0,1-7.1,2.1,17.6,17.6,0,0,1-3.1-.4l-3.1-1.1,1-4.4a14.4,14.4,0,0,0,2.5.8,9.8,9.8,0,0,0,2.6.3,4.2,4.2,0,0,0,2.9-.8,2.9,2.9,0,0,0,.9-2.3V45.6a5.3,5.3,0,0,1-1.9,1.5,4.8,4.8,0,0,1-2.4.6,6.5,6.5,0,0,1-5.5-2.6,11.5,11.5,0,0,1-1.9-6.9Zm5.9.4a7.4,7.4,0,0,0,.7,3.6,2.3,2.3,0,0,0,2.3,1.3,4.7,4.7,0,0,0,1.7-.3,3.1,3.1,0,0,0,1.1-.9v-8a3.5,3.5,0,0,0-1.1-1,3.1,3.1,0,0,0-1.7-.4A2.5,2.5,0,0,0,427,34a9.5,9.5,0,0,0-.7,3.8Z"/><path d="M90.4,54.3H87.2v8.6h-.8V54.3H83.2v-.6h7.2Z"/><path d="M94.4,56.7h-.6l-.6.2a.7.7,0,0,0-.6.3,1,1,0,0,0-.4.5,3.3,3.3,0,0,0-.3.6v4.7h-.7V56h.7v1.1l.8-.9a2.1,2.1,0,0,1,1.2-.3h.5Z"/><path d="M99.6,62.9a.6.6,0,0,0-.1-.4v-.6l-.4.5-.5.3-.7.2H96.3l-.7-.4-.5-.6a2.2,2.2,0,0,1-.1-.8c0-.4,0-.7.2-.9a1.3,1.3,0,0,1,.6-.7l1-.4,1.3-.2h1.4v-.8A1.4,1.4,0,0,0,99,57a1.7,1.7,0,0,0-1.3-.5l-.7.2a.9.9,0,0,0-.6.3.8.8,0,0,0-.4.4.9.9,0,0,0-.1.5h-.8a1.9,1.9,0,0,1,.2-.7,1.8,1.8,0,0,1,.5-.7l.9-.4,1.1-.2h1a1.8,1.8,0,0,1,.7.5,2,2,0,0,1,.6.7,2.5,2.5,0,0,1,.1.9v3.4c0,.1.1.2.1.3v.4a.4.4,0,0,0,.1.3c0,.2,0,.2.1.3h-.9Zm-2.3-.5H98l.7-.3.5-.5.3-.5V59.5H97.1l-.7.3a1.2,1.2,0,0,0-.5.5,1.4,1.4,0,0,0-.2.6,4.3,4.3,0,0,0,.1.5l.3.5.5.3Z"/><path d="M104.8,62.4h.7l.6-.3.4-.5a1.9,1.9,0,0,0,.2-.7h.8a3.2,3.2,0,0,1-.3.9,1.3,1.3,0,0,1-.6.7l-.8.5h-1l-1.3-.2-.9-.8a3.1,3.1,0,0,1-.5-1,3.4,3.4,0,0,1-.2-1.4v-.3a3,3,0,0,1,.2-1.3,3.7,3.7,0,0,1,.5-1.1l.9-.7a2.8,2.8,0,0,1,1.3-.3l1,.2.9.5a1.8,1.8,0,0,1,.5.7,3.5,3.5,0,0,1,.3,1.1h-.8a1.9,1.9,0,0,0-.2-.8l-.4-.6-.6-.3h-.7a1.6,1.6,0,0,0-1,.2,1.3,1.3,0,0,0-.7.6,3.2,3.2,0,0,0-.3.9,3.6,3.6,0,0,0-.2,1v.3a4.3,4.3,0,0,0,.2,1.1,1.9,1.9,0,0,0,.3.8l.7.7Z"/><path d="M110.6,59.4l-.9.9v2.6H109V53.2h.7v6.2l.7-.8,2.7-2.6h.9l-2.9,2.9,3.2,4h-.9Z"/><path d="M119.5,62.2H124v.7h-5.3V53.7h.8Z"/><path d="M124.9,59.4a5.9,5.9,0,0,1,.2-1.4,4.1,4.1,0,0,1,.7-1.1,2,2,0,0,1,.9-.7,3,3,0,0,1,2.6,0,2,2,0,0,1,.9.7,2.4,2.4,0,0,1,.6,1.1,3.2,3.2,0,0,1,.3,1.4v.2a3.5,3.5,0,0,1-.3,1.4,3,3,0,0,1-.6,1.1,3.1,3.1,0,0,1-.9.7L128,63l-1.3-.2a3.1,3.1,0,0,1-.9-.7l-.7-1.1a6.8,6.8,0,0,1-.2-1.4Zm.8.2a4.1,4.1,0,0,0,.1,1.1,2.2,2.2,0,0,0,.5.8l.7.7,1,.2,1-.2a2.3,2.3,0,0,0,.7-.7,5.6,5.6,0,0,0,.5-.8,4.1,4.1,0,0,0,.1-1.1v-.2a3.7,3.7,0,0,0-.1-1.1l-.5-.9a1.3,1.3,0,0,0-.7-.6,2.6,2.6,0,0,0-2,0,1.3,1.3,0,0,0-.7.6,4.1,4.1,0,0,0-.5.9,3.7,3.7,0,0,0-.1,1.1Z"/><path d="M135.2,62.4h.7l.6-.3.4-.5a1.9,1.9,0,0,0,.2-.7h.7a2.9,2.9,0,0,1-.2.9l-.6.7-.8.5h-1l-1.3-.2a2.4,2.4,0,0,1-.9-.8,2.1,2.1,0,0,1-.6-1,6.8,6.8,0,0,1-.2-1.4v-.3a5.9,5.9,0,0,1,.2-1.3,2.4,2.4,0,0,1,.6-1.1,2.2,2.2,0,0,1,.9-.7,2.8,2.8,0,0,1,1.3-.3l1,.2.8.5.6.7a3.6,3.6,0,0,1,.2,1.1h-.7a1.9,1.9,0,0,0-.2-.8l-.4-.6-.6-.3h-.7a1.5,1.5,0,0,0-1,.2,1.3,1.3,0,0,0-.7.6,3.6,3.6,0,0,0-.4.9,3.4,3.4,0,0,0-.1,1v.3a4.1,4.1,0,0,0,.1,1.1,2,2,0,0,0,.4.8,2.3,2.3,0,0,0,.7.7Z"/><path d="M143.7,62.9a.6.6,0,0,1-.1-.4,1.3,1.3,0,0,1-.1-.6l-.4.5-.5.3-.7.2h-1.6l-.7-.4-.5-.6a2.2,2.2,0,0,1-.1-.8c0-.4,0-.7.2-.9a1.3,1.3,0,0,1,.6-.7l1-.4,1.3-.2h1.4v-.8a1.4,1.4,0,0,0-.4-1.1,2,2,0,0,0-1.4-.5l-.7.2a.9.9,0,0,0-.6.3.8.8,0,0,0-.4.4.9.9,0,0,0-.1.5h-.8a1.9,1.9,0,0,1,.2-.7,2,2,0,0,1,.6-.7,2,2,0,0,1,.8-.4l1.1-.2h1l.8.5a1.8,1.8,0,0,1,.5.7,2.4,2.4,0,0,1,.2.9v4.1c0,.1.1.2.1.3s0,.2.1.3h-.8Zm-2.4-.5h.7l.7-.3.5-.5.3-.5V59.5h-2.3l-.8.3a1.2,1.2,0,0,0-.5.5,1.4,1.4,0,0,0-.2.6,4.3,4.3,0,0,0,.1.5l.3.5.5.3Z"/><path d="M147.5,54.3V56h1.4v.7h-1.4v5.1c.1.2.2.3.2.4H149v.6h-1.4c-.2,0-.3-.1-.5-.3l-.3-.5a2.2,2.2,0,0,1-.1-.9V56.7h-1.3V56h1.3V54.3Z"/><path d="M150.4,54c0-.1.1-.2.2-.3l.3-.2.4.2c.1.1.2.2.2.3a.5.5,0,0,1-.2.4l-.4.2-.3-.2A.5.5,0,0,1,150.4,54Zm.9,8.9h-.7V56h.7Z"/><path d="M153,59.4a3.2,3.2,0,0,1,.2-1.4,2.4,2.4,0,0,1,.6-1.1,2.3,2.3,0,0,1,1-.7,2.4,2.4,0,0,1,1.2-.3,2.8,2.8,0,0,1,1.3.3,2.3,2.3,0,0,1,1,.7l.6,1.1a5.9,5.9,0,0,1,.2,1.4v.2a6.8,6.8,0,0,1-.2,1.4l-.6,1.1-1,.7L156,63l-1.2-.2-1-.7a3,3,0,0,1-.6-1.1,3.4,3.4,0,0,1-.2-1.4Zm.7.2a4.3,4.3,0,0,0,.2,1.1,2,2,0,0,0,.4.8,4.6,4.6,0,0,0,.7.7l1,.2,1-.2a2.3,2.3,0,0,0,.7-.7,2.2,2.2,0,0,0,.5-.8,4.1,4.1,0,0,0,.1-1.1v-.2a3.7,3.7,0,0,0-.1-1.1,4.1,4.1,0,0,0-.5-.9,1.3,1.3,0,0,0-.7-.6,2.6,2.6,0,0,0-2,0,1.9,1.9,0,0,0-.7.6,3.6,3.6,0,0,0-.4.9,3.6,3.6,0,0,0-.2,1.1Z"/><path d="M161.4,56v1.2l.4-.5.5-.4c.2-.2.4-.2.6-.3h1.7l.7.5.4.8a3.7,3.7,0,0,1,.1,1.1v4.5h-.7V58.4c0-.3-.1-.6-.1-.9a1,1,0,0,0-.4-.5.5.5,0,0,0-.5-.3h-1.4l-.6.4-.4.5-.3.6v4.7h-.7V56Z"/><path d="M168.5,62.6v.6l-.2.5-.3.5a.8.8,0,0,1-.4.4l-.4-.3a3,3,0,0,0,.4-.8,2.9,2.9,0,0,0,.2-.9v-.9h.7Z"/><path d="M174.4,59.1v3.8h-.8V53.7h3.2a2.7,2.7,0,0,1,1.3.2,3.1,3.1,0,0,1,1,.5,2.4,2.4,0,0,1,.6.9,3.6,3.6,0,0,1,.2,1.1,5,5,0,0,1-.2,1.2,1.6,1.6,0,0,1-.6.8,3.3,3.3,0,0,1-1,.6h-3.7Zm0-.6h2.4l1-.2a2,2,0,0,0,.8-.4,4.3,4.3,0,0,0,.4-.7,1.9,1.9,0,0,0,.1-.8,2.5,2.5,0,0,0-.1-.8l-.4-.6-.8-.5-1-.2h-2.4Z"/><path d="M185.7,62.9c0-.1-.1-.3-.1-.4v-.6l-.4.5-.6.3-.6.2h-1.7l-.7-.4-.4-.6a2.4,2.4,0,0,1-.2-.8,2,2,0,0,1,.2-.9,2.6,2.6,0,0,1,1.7-1.1l1.3-.2h1.4v-.8a1.4,1.4,0,0,0-.5-1.1,1.7,1.7,0,0,0-1.3-.5l-.7.2a.6.6,0,0,0-.6.3.8.8,0,0,0-.4.4.9.9,0,0,0-.1.5h-.8a1.9,1.9,0,0,1,.2-.7,1.8,1.8,0,0,1,.5-.7l.9-.4,1-.2h1l.8.5a1.8,1.8,0,0,1,.5.7,1.3,1.3,0,0,1,.2.9v3.7c0,.2.1.3.1.4v.6h-.8Zm-2.4-.5h.8l.6-.3c.2-.2.4-.3.5-.5a1,1,0,0,0,.4-.5V59.5h-2.4l-.8.3a1,1,0,0,0-.4.5.7.7,0,0,0-.2.6.7.7,0,0,0,.1.5l.3.5.5.3Z"/><path d="M192.5,61.2c0-.2-.1-.3-.1-.5l-.3-.4-.5-.3-1-.3-1-.3-.7-.4a.8.8,0,0,1-.5-.5,1.3,1.3,0,0,1,0-1.4,1,1,0,0,1,.5-.6l.7-.4,1-.2,1.1.2a2,2,0,0,1,.8.4l.5.6a2.9,2.9,0,0,1,.2.9h-.8a1.3,1.3,0,0,0-.1-.6L192,57l-.6-.3h-1.5l-.5.2-.3.4a.9.9,0,0,0-.1.5.8.8,0,0,0,.1.4l.2.3.6.3.9.3,1.1.3.7.4.5.6a1.5,1.5,0,0,1,.1.7,1.1,1.1,0,0,1-.2.8,1.3,1.3,0,0,1-.5.6,2,2,0,0,1-.8.4h-2.2l-.8-.5-.5-.6a3.1,3.1,0,0,1-.2-.8h.8a.8.8,0,0,0,.2.7c.1.1.2.3.4.4l.6.2h1.5l.5-.3c.2-.1.3-.2.3-.4Z"/><path d="M199,61.2v-.5l-.3-.4-.6-.3-.9-.3-1-.3a2,2,0,0,1-.8-.4,1,1,0,0,1-.4-.5,1.3,1.3,0,0,1,0-1.4c.1-.3.2-.5.5-.6l.7-.4,1-.2,1.1.2a2,2,0,0,1,.8.4l.5.6a2.9,2.9,0,0,1,.2.9H199a1.3,1.3,0,0,0-.1-.6l-.4-.4-.5-.3h-1.5l-.5.2-.3.4a.9.9,0,0,0-.1.5v.4l.3.3.6.3.9.3,1.1.3.7.4.5.6a1.5,1.5,0,0,1,.1.7,1.9,1.9,0,0,1-.2.8l-.5.6a2,2,0,0,1-.8.4h-2.2l-.8-.5a1.8,1.8,0,0,1-.7-1.4h.7c.1.3.1.5.3.7l.4.4.6.2H198l.6-.3c.1-.1.3-.2.3-.4A.6.6,0,0,0,199,61.2Z"/><path d="M204.2,63l-1.3-.2a3.1,3.1,0,0,1-.9-.7,4.1,4.1,0,0,1-.7-1.1,5.1,5.1,0,0,1-.2-1.3v-.3a5.9,5.9,0,0,1,.2-1.4,3,3,0,0,1,.7-1.1,2,2,0,0,1,.9-.7,2.3,2.3,0,0,1,1.1-.3l1.2.2a2.7,2.7,0,0,1,.8.7,2.1,2.1,0,0,1,.6,1,5.3,5.3,0,0,1,.1,1.3v.4h-4.9v.2a3.6,3.6,0,0,0,.2,1,2.6,2.6,0,0,0,.5.9l.7.6,1,.2,1.1-.2a2.7,2.7,0,0,0,.8-.7l.5.3-.4.5-.5.4-.7.2Zm-.2-6.4h-.8l-.6.5a1.8,1.8,0,0,0-.5.7,3,3,0,0,0-.2,1H206c0-.3-.1-.6-.1-.8a5.9,5.9,0,0,0-.4-.8l-.6-.5Z"/><path d="M209,56v1.2a2.9,2.9,0,0,1,.9-.9c.2-.2.4-.2.6-.3h1.6a1.8,1.8,0,0,1,.7.5,2.2,2.2,0,0,1,.5.8,3.7,3.7,0,0,1,.1,1.1v4.5h-.7V58.4a2.9,2.9,0,0,0-.2-.9,1.2,1.2,0,0,0-.8-.8h-1.4l-.6.4a1,1,0,0,0-.4.5l-.3.6v4.7h-.8V56Z"/><path d="M215.1,59.4a6.1,6.1,0,0,1,.1-1.4,2.9,2.9,0,0,1,.6-1.1,1.8,1.8,0,0,1,.8-.7,2,2,0,0,1,1.1-.3,2.8,2.8,0,0,1,1.3.3l.9.8V56h.7v6.8a5,5,0,0,1-.2,1.2,2.4,2.4,0,0,1-.6.9l-.8.5a2.3,2.3,0,0,1-1.2.2h-.6l-.7-.3-.6-.3-.4-.5.4-.5.9.8,1,.2.9-.2.6-.4a1.6,1.6,0,0,0,.4-.7,2.2,2.2,0,0,0,.1-.9V62a3,3,0,0,1-.8.8l-1.3.2-1.1-.2a2.7,2.7,0,0,1-.8-.7,6,6,0,0,1-.6-1.1,7.1,7.1,0,0,1-.1-1.5Zm.7.1a5,5,0,0,0,.2,1.2,3.2,3.2,0,0,0,.3.9l.6.6.9.2h.8l.5-.3a.8.8,0,0,0,.4-.4l.3-.5V57.9c0-.2-.1-.3-.2-.5l-.5-.4-.5-.3h-.7a1.6,1.6,0,0,0-1,.2,1.7,1.7,0,0,0-.6.6,1.9,1.9,0,0,0-.3.9,3.6,3.6,0,0,0-.2,1.1Z"/><path d="M225.2,63l-1.2-.2-1-.7a3.9,3.9,0,0,1-.6-1.1,2.7,2.7,0,0,1-.2-1.3v-.3a3.2,3.2,0,0,1,.2-1.4,5.4,5.4,0,0,1,.6-1.1,2.3,2.3,0,0,1,1-.7,2,2,0,0,1,1.1-.3l1.2.2a2.7,2.7,0,0,1,.8.7,3.1,3.1,0,0,1,.5,1,2.7,2.7,0,0,1,.2,1.3v.4h-4.9v.2a3.6,3.6,0,0,0,.2,1,2.6,2.6,0,0,0,.5.9l.7.6,1,.2,1-.2a3.1,3.1,0,0,0,.9-.7l.5.3-.4.5-.5.4-.7.2Zm-.1-6.4h-.8l-.7.5a4.3,4.3,0,0,0-.4.7l-.3,1h4.2a1.9,1.9,0,0,0-.2-.8l-.3-.8-.7-.5Z"/><path d="M232.5,56.7H232l-.7.2a.7.7,0,0,0-.6.3,1,1,0,0,0-.4.5,1.1,1.1,0,0,0-.2.6v4.7h-.8V56h.7v1.1a2.8,2.8,0,0,1,.7-.9,2.1,2.1,0,0,1,1.2-.3h.5Z"/><path d="M243.8,58.8a4.7,4.7,0,0,1-.2,1.7,4.6,4.6,0,0,1-.7,1.4,3.6,3.6,0,0,1-1.2.8,3.3,3.3,0,0,1-1.5.3,3.2,3.2,0,0,1-1.4-.3,3.6,3.6,0,0,1-1.2-.8,4.6,4.6,0,0,1-.7-1.4,4.7,4.7,0,0,1-.3-1.7v-1a5.2,5.2,0,0,1,.3-1.8,5.4,5.4,0,0,1,.7-1.3,2.7,2.7,0,0,1,1.2-.9,3.2,3.2,0,0,1,1.4-.3,3.3,3.3,0,0,1,1.5.3,3.4,3.4,0,0,1,1.2.9,5.4,5.4,0,0,1,.7,1.3,5.2,5.2,0,0,1,.2,1.8Zm-.7-1a6.1,6.1,0,0,0-.2-1.5,3.9,3.9,0,0,0-.6-1.1,1.6,1.6,0,0,0-.9-.7,2.1,2.1,0,0,0-1.2-.3,2,2,0,0,0-1.1.3,1.6,1.6,0,0,0-.9.7,2.4,2.4,0,0,0-.6,1.1,6.1,6.1,0,0,0-.2,1.5v1a7.7,7.7,0,0,0,.2,1.5,2.4,2.4,0,0,0,.6,1.1,2.2,2.2,0,0,0,.9.7,2,2,0,0,0,1.1.2,2.4,2.4,0,0,0,2.1-.9,3.9,3.9,0,0,0,.6-1.1,7.7,7.7,0,0,0,.2-1.5Z"/><path d="M248.2,62.4h.7l.6-.3.4-.5a1.9,1.9,0,0,0,.2-.7h.7a2.9,2.9,0,0,1-.2.9l-.6.7-.8.5h-1l-1.3-.2a2.4,2.4,0,0,1-.9-.8,2.1,2.1,0,0,1-.6-1,6.8,6.8,0,0,1-.2-1.4v-.3a5.9,5.9,0,0,1,.2-1.3,2.4,2.4,0,0,1,.6-1.1,2.2,2.2,0,0,1,.9-.7,2.8,2.8,0,0,1,1.3-.3l1,.2.8.5.6.7a3.6,3.6,0,0,1,.2,1.1h-.7a1.9,1.9,0,0,0-.2-.8l-.4-.6-.6-.3h-.7a1.5,1.5,0,0,0-1,.2,1.3,1.3,0,0,0-.7.6,3.6,3.6,0,0,0-.4.9,3.4,3.4,0,0,0-.1,1v.3a4.1,4.1,0,0,0,.1,1.1,2,2,0,0,0,.4.8,2.3,2.3,0,0,0,.7.7Z"/><path d="M254.9,62.4h.7l.6-.3.4-.5a1.9,1.9,0,0,0,.2-.7h.7a2.9,2.9,0,0,1-.2.9l-.6.7-.8.5h-1l-1.3-.2a2.4,2.4,0,0,1-.9-.8,2.1,2.1,0,0,1-.6-1,6.8,6.8,0,0,1-.2-1.4v-.3a5.9,5.9,0,0,1,.2-1.3,2.4,2.4,0,0,1,.6-1.1,2.2,2.2,0,0,1,.9-.7,2.8,2.8,0,0,1,1.3-.3l1,.2.8.5.6.7a3.6,3.6,0,0,1,.2,1.1h-.7a1.9,1.9,0,0,0-.2-.8l-.4-.6-.6-.3h-.7a1.5,1.5,0,0,0-1,.2,1.3,1.3,0,0,0-.7.6,3.6,3.6,0,0,0-.4.9,3.4,3.4,0,0,0-.1,1v.3a4.1,4.1,0,0,0,.1,1.1,2,2,0,0,0,.4.8,2.3,2.3,0,0,0,.7.7Z"/><path d="M263.4,62l-.8.8-1.3.2h-1l-.7-.5a1.5,1.5,0,0,1-.4-.8,2.2,2.2,0,0,1-.2-1.2V56h.8v4.4a3.1,3.1,0,0,0,.1,1l.3.6.5.3h1.4l.6-.3.5-.4a1.4,1.4,0,0,0,.2-.6V56h.8v6.9h-.7Z"/><path d="M271.7,59.5a6.8,6.8,0,0,1-.2,1.5,5.4,5.4,0,0,1-.5,1.1,2.7,2.7,0,0,1-.8.7l-1.1.2-1.3-.2a2.4,2.4,0,0,1-.9-.8v3.5h-.7V56h.7v1a2.4,2.4,0,0,1,.9-.8,2.5,2.5,0,0,1,1.3-.3,2.3,2.3,0,0,1,1.1.3,1.8,1.8,0,0,1,.8.7,2.8,2.8,0,0,1,.5,1.1,5.9,5.9,0,0,1,.2,1.4Zm-.8-.1a3.7,3.7,0,0,0-.1-1.1,1.9,1.9,0,0,0-.4-.9,1.2,1.2,0,0,0-.6-.6,1.5,1.5,0,0,0-.9-.2h-.8c-.2,0-.3.1-.5.3a.8.8,0,0,0-.4.4l-.3.5v3.3l.3.5.4.3c.2.2.4.2.6.3h.7l.9-.2c.2-.2.5-.4.6-.6a3.6,3.6,0,0,0,.4-.9,4.9,4.9,0,0,0,.1-1.2Z"/><path d="M277.7,62.9c0-.1-.1-.3-.1-.4v-.6l-.4.5-.6.3-.6.2h-1.7l-.7-.4a2.1,2.1,0,0,1-.4-.6,2.4,2.4,0,0,1-.2-.8,2,2,0,0,1,.2-.9l.6-.7,1-.4,1.3-.2h1.5v-.8a1.4,1.4,0,0,0-.5-1.1,1.7,1.7,0,0,0-1.3-.5l-.8.2a.5.5,0,0,0-.5.3.8.8,0,0,0-.4.4c-.1.2-.2.3-.2.5h-.7a1,1,0,0,1,.2-.7,1.8,1.8,0,0,1,.5-.7l.8-.4,1.1-.2h1l.8.5a1.8,1.8,0,0,1,.5.7,2.4,2.4,0,0,1,.2.9v3.7c0,.2,0,.3.1.4v.6h-.8Zm-2.4-.5h.8l.6-.3c.2-.2.4-.3.5-.5a1,1,0,0,0,.4-.5V59.5h-2.4l-.8.3-.5.5a1.3,1.3,0,0,0-.1.6.7.7,0,0,0,.1.5l.3.5.5.3Z"/><path d="M281.1,56v1.2a2.9,2.9,0,0,1,.9-.9c.2-.2.4-.2.6-.3h1.6a1.8,1.8,0,0,1,.7.5,2.2,2.2,0,0,1,.5.8,3.7,3.7,0,0,1,.1,1.1v4.5h-.7V58.4a2.9,2.9,0,0,0-.2-.9,1.2,1.2,0,0,0-.8-.8h-1.4l-.6.4a1,1,0,0,0-.4.5l-.3.6v4.7h-.8V56Z"/><path d="M290,62.4h.7l.6-.3.4-.5a1.9,1.9,0,0,0,.2-.7h.8a3.2,3.2,0,0,1-.3.9,1.3,1.3,0,0,1-.6.7l-.8.5h-1l-1.3-.2-.9-.8a3.1,3.1,0,0,1-.5-1,3.4,3.4,0,0,1-.2-1.4v-.3a3,3,0,0,1,.2-1.3,3.7,3.7,0,0,1,.5-1.1l.9-.7a2.8,2.8,0,0,1,1.3-.3l1,.2.9.5a1.8,1.8,0,0,1,.5.7,3.5,3.5,0,0,1,.3,1.1h-.8a1.9,1.9,0,0,0-.2-.8l-.4-.6-.6-.3H290a1.6,1.6,0,0,0-1,.2,1.3,1.3,0,0,0-.7.6,3.2,3.2,0,0,0-.3.9,3.6,3.6,0,0,0-.2,1v.3a4.3,4.3,0,0,0,.2,1.1,1.9,1.9,0,0,0,.3.8,2.3,2.3,0,0,0,.7.7Z"/><path d="M296.3,61.8l2.1-5.8h.8l-2.9,8-.3.5-.3.6-.6.4-.8.2h-.5V65h.9l.4-.2.3-.4c.1-.2.2-.3.2-.5l.4-1L293.4,56h.8Z"/><path d="M305.1,57.9l-.5-.6-.3-.6a.8.8,0,0,1-.2-.5c0-.2-.1-.4-.1-.6a1.9,1.9,0,0,1,.2-.8,1.6,1.6,0,0,1,.4-.7l.7-.4.9-.2.8.2.6.4a1,1,0,0,1,.4.5,2,2,0,0,1,.1.7c0,.3,0,.5-.1.6s-.1.4-.3.6l-.4.4-.4.4-.8.6,2.5,3a3,3,0,0,0,.4-1,3.6,3.6,0,0,0,.2-1.1h.7a5.9,5.9,0,0,1-.2,1.4,6.7,6.7,0,0,1-.6,1.2l1.2,1.5h-.9l-.8-.9-1.1.8-1.4.2h-1.2a2,2,0,0,1-.9-.6,1.3,1.3,0,0,1-.6-.7,3.6,3.6,0,0,1-.2-1.1,1.7,1.7,0,0,1,.1-.7,4.3,4.3,0,0,1,.4-.7l.6-.6.7-.6Zm1,4.5a3.4,3.4,0,0,0,2.1-1l-2.6-2.9h-.1l-.3.2-.7.6-.3.5a1.7,1.7,0,0,0-.2.5v.3a1.5,1.5,0,0,0,.1.7.9.9,0,0,0,.4.6c.1.2.4.3.6.4Zm-1.3-6.8a2.9,2.9,0,0,0,.2.9l.6.9.9-.6.6-.6a1.4,1.4,0,0,0,.3-.9.6.6,0,0,0-.1-.4.8.8,0,0,0-.2-.4l-.4-.2h-1.1l-.5.3a.8.8,0,0,0-.2.5A.7.7,0,0,0,304.8,55.6Z"/><path d="M314.2,59.4a3.2,3.2,0,0,1,.3-1.4,2.4,2.4,0,0,1,.6-1.1,2.9,2.9,0,0,1,3.5-.7,1.6,1.6,0,0,1,.9.7,4.1,4.1,0,0,1,.7,1.1,5.9,5.9,0,0,1,.2,1.4v.2a6.8,6.8,0,0,1-.2,1.4l-.7,1.1a2.2,2.2,0,0,1-.9.7l-1.3.2-1.2-.2-1-.7a3,3,0,0,1-.6-1.1,3.5,3.5,0,0,1-.3-1.4Zm.8.2a4.3,4.3,0,0,0,.2,1.1,2,2,0,0,0,.4.8,2.3,2.3,0,0,0,.7.7l1,.2,1-.2a2.3,2.3,0,0,0,.7-.7,2.2,2.2,0,0,0,.5-.8,4.1,4.1,0,0,0,.1-1.1v-.2a3.7,3.7,0,0,0-.1-1.1,4.1,4.1,0,0,0-.5-.9,1.3,1.3,0,0,0-.7-.6,2.6,2.6,0,0,0-2,0,1.3,1.3,0,0,0-.7.6,3.6,3.6,0,0,0-.4.9,3.6,3.6,0,0,0-.2,1.1Z"/><path d="M323.1,54.3V56h1.4v.7h-1.4v4.5a3.5,3.5,0,0,0,.1.6.5.5,0,0,0,.2.4h1.2v.6h-1.4a.5.5,0,0,1-.5-.3.9.9,0,0,1-.3-.5,2.2,2.2,0,0,1-.1-.9V56.7h-1.3V56h1.3V54.3Z"/><path d="M326.9,57.2a2.9,2.9,0,0,1,.9-.9l.6-.3H330a1.8,1.8,0,0,1,.7.5,2.2,2.2,0,0,1,.5.8,3.7,3.7,0,0,1,.1,1.1v4.5h-.8V58.4a2.8,2.8,0,0,0-.1-.9.9.9,0,0,0-.3-.5.5.5,0,0,0-.5-.3h-1.4l-.6.4a1,1,0,0,0-.4.5.9.9,0,0,0-.3.6v4.7h-.8V53.2h.8Z"/><path d="M335.9,63l-1.2-.2-1-.7a2.4,2.4,0,0,1-.6-1.1,2.8,2.8,0,0,1-.3-1.3v-.3a3.2,3.2,0,0,1,.3-1.4,2,2,0,0,1,.6-1.1,2.3,2.3,0,0,1,1-.7,2,2,0,0,1,1.1-.3l1.1.2a2.2,2.2,0,0,1,.9.7,3.1,3.1,0,0,1,.5,1,5.1,5.1,0,0,1,.2,1.3v.4h-4.9v.2a3.6,3.6,0,0,0,.2,1,2.5,2.5,0,0,0,.4.9l.8.6.9.2,1.1-.2.9-.7.4.3-.3.5-.6.4-.6.2Zm-.1-6.4H335a1.8,1.8,0,0,0-.7.5,1.6,1.6,0,0,0-.4.7,2.9,2.9,0,0,0-.3,1h4.1a1.9,1.9,0,0,0-.1-.8,2,2,0,0,0-.4-.8c-.1-.2-.3-.3-.6-.5Z"/><path d="M343.1,56.7h-.5l-.7.2a.5.5,0,0,0-.5.3,1,1,0,0,0-.4.5,3.3,3.3,0,0,0-.3.6v4.7H340V56h.7v1.1l.8-.9a2.1,2.1,0,0,1,1.2-.3h.5Z"/><path d="M348.7,53.7l3.4,8.1,3.4-8.1h1.1v9.2h-.8V54.8l-3.5,8.1h-.6l-3.4-8.1v8.1h-.8V53.7Z"/><path d="M361.4,63l-1.2-.2-1-.7a2.4,2.4,0,0,1-.6-1.1,2.8,2.8,0,0,1-.3-1.3v-.3a3.2,3.2,0,0,1,.3-1.4,2,2,0,0,1,.6-1.1,2.3,2.3,0,0,1,1-.7,2,2,0,0,1,1.1-.3l1.1.2a2.2,2.2,0,0,1,.9.7,3.1,3.1,0,0,1,.5,1,5.1,5.1,0,0,1,.2,1.3v.4h-4.9v.2a1.8,1.8,0,0,0,.2,1,2.5,2.5,0,0,0,.4.9l.8.6.9.2,1.1-.2.9-.7.4.3-.4.5-.5.4-.6.2Zm-.1-6.4h-.8a1.8,1.8,0,0,0-.7.5,1.6,1.6,0,0,0-.4.7,2.9,2.9,0,0,0-.3,1h4.1a1.9,1.9,0,0,0-.1-.8,2,2,0,0,0-.4-.8c-.1-.2-.3-.3-.6-.5Z"/><path d="M366.7,54.3V56h1.4v.7h-1.4v5.1l.2.4h1.3v.6h-1.4a.5.5,0,0,1-.5-.3l-.3-.5a2.2,2.2,0,0,1-.1-.9V56.7h-1.3V56h1.3V54.3Z"/><path d="M374,62.9a.6.6,0,0,1-.1-.4c0-.2-.1-.4-.1-.6l-.4.5-.5.3-.6.2h-1.7l-.7-.4-.4-.6a1.2,1.2,0,0,1-.2-.8,2,2,0,0,1,.2-.9l.6-.7,1-.4,1.3-.2h1.4v-.8a1.4,1.4,0,0,0-.4-1.1,1.9,1.9,0,0,0-1.3-.5l-.8.2a.9.9,0,0,0-.6.3c-.1.1-.3.2-.3.4s-.2.3-.2.5h-.7a1.7,1.7,0,0,1,.1-.7l.6-.7a2,2,0,0,1,.8-.4l1.1-.2h1l.8.5a1.8,1.8,0,0,1,.5.7,2.4,2.4,0,0,1,.2.9v4.1a.4.4,0,0,1,.1.3c0,.2.1.2.1.3H374Zm-2.4-.5h.8l.6-.3.5-.5.3-.5V59.5h-2.3l-.8.3-.5.5a1.3,1.3,0,0,0-.1.6.7.7,0,0,0,.1.5c0,.2.1.3.3.5l.5.3Z"/><path d="M376.3,59.4a5.9,5.9,0,0,1,.2-1.4,2.8,2.8,0,0,1,.5-1.1,1.6,1.6,0,0,1,.9-.7,1.8,1.8,0,0,1,1.1-.3,2.6,2.6,0,0,1,2.1,1.1V53.2h.7v9.7h-.7V62a2.4,2.4,0,0,1-.9.8l-1.3.2-1.1-.2a2.7,2.7,0,0,1-.8-.7,5.4,5.4,0,0,1-.5-1.1,6.8,6.8,0,0,1-.2-1.5Zm.8.1a4.9,4.9,0,0,0,.1,1.2,3.6,3.6,0,0,0,.4.9,1.7,1.7,0,0,0,.6.6l.9.2h.7l.5-.3a1,1,0,0,0,.5-.4l.3-.5V57.9l-.3-.5a.8.8,0,0,0-.4-.4l-.6-.3h-.7c-.4,0-.7,0-.9.2a.9.9,0,0,0-.6.6,1.9,1.9,0,0,0-.4.9,3.7,3.7,0,0,0-.1,1.1Z"/><path d="M388.2,62.9a.6.6,0,0,1-.1-.4,1.3,1.3,0,0,1-.1-.6l-.4.5-.5.3-.6.2h-1.7l-.7-.4-.5-.6a2.2,2.2,0,0,1-.1-.8,2,2,0,0,1,.2-.9,1.3,1.3,0,0,1,.6-.7l1-.4,1.3-.2H388v-.8a1.4,1.4,0,0,0-.4-1.1,2,2,0,0,0-1.4-.5l-.7.2-.6.3-.4.4c0,.2-.1.3-.1.5h-.8a1.9,1.9,0,0,1,.2-.7,2,2,0,0,1,.6-.7l.8-.4,1.1-.2h1l.8.5a1.8,1.8,0,0,1,.5.7,2.4,2.4,0,0,1,.2.9v4.1c0,.1.1.2.1.3s0,.2.1.3h-.8Zm-2.4-.5h.7l.7-.3.5-.5.3-.5V59.5h-2.3l-.8.3-.5.5a1.4,1.4,0,0,0-.2.6,4.3,4.3,0,0,0,.1.5l.4.5.4.3Z"/><path d="M392,54.3V56h1.4v.7H392v4.5c0,.3,0,.5.1.6s.1.3.1.4h1.3v.6h-1.4c-.2,0-.3-.1-.5-.3l-.3-.5c0-.2-.1-.5-.1-.9V56.7H390V56h1.2V54.3Z"/><path d="M399.3,62.9c0-.1-.1-.3-.1-.4v-.6l-.4.5-.6.3-.6.2h-1.7l-.7-.4-.4-.6a2.4,2.4,0,0,1-.2-.8,2,2,0,0,1,.2-.9,2.3,2.3,0,0,1,.7-.7,2.5,2.5,0,0,1,.9-.4l1.3-.2h1.5v-.8a1.4,1.4,0,0,0-.5-1.1,1.7,1.7,0,0,0-1.3-.5l-.8.2a.5.5,0,0,0-.5.3.8.8,0,0,0-.4.4c-.1.2-.2.3-.2.5h-.7a1,1,0,0,1,.2-.7,1.8,1.8,0,0,1,.5-.7,2,2,0,0,1,.8-.4l1.1-.2h1l.8.5a1.8,1.8,0,0,1,.5.7,1.3,1.3,0,0,1,.2.9v3.7c0,.2,0,.3.1.4v.6h-.8Zm-2.4-.5h.8l.6-.3.5-.5a1,1,0,0,0,.4-.5V59.5h-2.4l-.8.3-.5.5a1.3,1.3,0,0,0-.1.6.7.7,0,0,0,.1.5l.3.5.5.3Z"/></g></g></svg>